<?xml version="1.0" encoding="UTF-8"?>
<!DOCTYPE svg PUBLIC "-//W3C//DTD SVG 1.1//EN" "http://www.w3.org/Graphics/SVG/1.1/DTD/svg11.dtd">
<!-- Creator: CorelDRAW -->
<svg xmlns="http://www.w3.org/2000/svg" xml:space="preserve" width="78px" height="78px" version="1.1" style="shape-rendering:geometricPrecision; text-rendering:geometricPrecision; image-rendering:optimizeQuality; fill-rule:evenodd; clip-rule:evenodd"
viewBox="0 0 0.154 0.154"
 xmlns:xlink="http://www.w3.org/1999/xlink"
 xmlns:xodm="http://www.corel.com/coreldraw/odm/2003">
 <defs>
  <style type="text/css">
   <![CDATA[
    .fil0 {fill:white}
   ]]>
  </style>
 </defs>
 <g id="Camada_x0020_1">
  <metadata id="CorelCorpID_0Corel-Layer"/>
  <g id="_2201610325776">
   <path class="fil0" d="M0.027 0.099l0 -0.044c0,-0.016 0.012,-0.028 0.028,-0.028l0.044 0c0.016,0 0.028,0.012 0.028,0.028l0 0.044c0,0.016 -0.012,0.028 -0.028,0.028l-0.044 0c-0.016,0 -0.028,-0.012 -0.028,-0.028zm-0.027 -0.061l0 0.077c0,0.008 0.004,0.019 0.01,0.025l0.007 0.007c0.006,0.004 0.013,0.007 0.021,0.007l0.077 0c0.006,0 0.012,-0.002 0.016,-0.004l0.006 -0.003c0.01,-0.007 0.017,-0.02 0.017,-0.032l0 -0.077c0,-0.006 -0.003,-0.014 -0.006,-0.018 -0.001,-0.003 -0.004,-0.006 -0.006,-0.008 -0.006,-0.007 -0.017,-0.012 -0.027,-0.012l-0.077 0c-0.009,0 -0.02,0.005 -0.026,0.012 -0.004,0.003 -0.006,0.007 -0.008,0.011 -0.002,0.004 -0.004,0.01 -0.004,0.015z"/>
   <path class="fil0" d="M0.054 0.077c0,-0.001 0.001,-0.004 0.001,-0.005 0.001,-0.004 0.003,-0.008 0.006,-0.011 0.003,-0.003 0.007,-0.005 0.011,-0.006 0.016,-0.003 0.03,0.011 0.027,0.027 -0.001,0.004 -0.003,0.008 -0.006,0.011 -0.002,0.002 -0.004,0.003 -0.007,0.004 -0.004,0.003 -0.009,0.003 -0.014,0.002 -0.01,-0.002 -0.018,-0.012 -0.018,-0.022zm0.044 -0.026c0,-0.001 0.002,-0.004 0.005,-0.004 0.002,0 0.004,0.002 0.004,0.004 0.001,0.005 -0.008,0.006 -0.009,0zm-0.062 0.002l0 0.048c0,0.004 0.003,0.009 0.005,0.012 0.003,0.002 0.008,0.005 0.012,0.005l0.048 0c0.003,0 0.007,-0.002 0.009,-0.003 0.002,-0.002 0.003,-0.003 0.004,-0.004 0.002,-0.003 0.004,-0.007 0.004,-0.01l0 -0.048c0,-0.004 -0.002,-0.008 -0.004,-0.011 -0.003,-0.003 -0.008,-0.006 -0.013,-0.006l-0.048 0c-0.006,0 -0.012,0.005 -0.015,0.01 -0.001,0.001 -0.002,0.005 -0.002,0.007z"/>
   <path class="fil0" d="M0.063 0.076c0,0.005 0.001,0.008 0.004,0.01 0.002,0.002 0.002,0.002 0.004,0.003 0.007,0.003 0.015,0.001 0.018,-0.006 0.004,-0.008 -0.001,-0.02 -0.013,-0.02 -0.006,0 -0.013,0.007 -0.013,0.013z"/>
  </g>
 </g>
</svg>
