<?xml version="1.0" encoding="UTF-8"?>
<!DOCTYPE svg PUBLIC "-//W3C//DTD SVG 1.1//EN" "http://www.w3.org/Graphics/SVG/1.1/DTD/svg11.dtd">
<!-- Creator: CorelDRAW -->
<svg xmlns="http://www.w3.org/2000/svg" xml:space="preserve" width="91px" height="91px" version="1.1" style="shape-rendering:geometricPrecision; text-rendering:geometricPrecision; image-rendering:optimizeQuality; fill-rule:evenodd; clip-rule:evenodd"
viewBox="0 0 0.324 0.324"
 xmlns:xlink="http://www.w3.org/1999/xlink"
 xmlns:xodm="http://www.corel.com/coreldraw/odm/2003">
 <defs>
  <style type="text/css">
   <![CDATA[
    .fil1 {fill:none}
    .fil0 {fill:#FF6600}
   ]]>
  </style>
 </defs>
 <g id="Camada_x0020_1">
  <metadata id="CorelCorpID_0Corel-Layer"/>
  <g id="_2202572054960">
   <path class="fil0" d="M0.064 0.185c0,0.013 0.075,0.013 0.075,0 0,-0.01 -0.012,-0.025 -0.028,-0.029 0.007,-0.004 0.011,-0.013 0.011,-0.022 0,-0.011 -0.009,-0.02 -0.02,-0.02 -0.012,0 -0.021,0.009 -0.021,0.02 0,0.009 0.004,0.018 0.011,0.022 -0.016,0.004 -0.028,0.019 -0.028,0.029z"/>
   <path class="fil0" d="M0.139 0.154c0,0.003 0.003,0.005 0.005,0.005l0.059 0c0.001,-0.001 0.002,-0.001 0.003,-0.002l0 -0.008 -0.062 0c-0.002,0 -0.005,0.002 -0.005,0.005z"/>
   <path class="fil0" d="M0.206 0.127l-0.062 0c-0.002,0 -0.005,0.002 -0.005,0.005 0,0.002 0.003,0.005 0.005,0.005l0.062 0 0 -0.01z"/>
   <path class="fil0" d="M0.065 0.228c-0.01,0 -0.018,-0.008 -0.018,-0.018l0 -0.112c0,-0.01 0.008,-0.018 0.018,-0.018l0.141 0 0 -0.012 -0.141 0c-0.017,0 -0.03,0.014 -0.03,0.03l0 0.112c0,0.016 0.013,0.03 0.03,0.03l0.142 0 0.003 -0.012 -0.145 0 0 0z"/>
   <path class="fil0" d="M0.266 0.069l0 0.013c0.006,0.003 0.011,0.009 0.011,0.016l0 0.112c0,0.009 -0.007,0.017 -0.016,0.018l0.003 0.011c0.014,-0.002 0.025,-0.014 0.025,-0.029l0 -0.112c0,-0.014 -0.01,-0.026 -0.023,-0.029z"/>
   <path class="fil0" d="M0.214 0.148c0.003,-0.003 0.008,-0.004 0.013,0 0.005,-0.009 0.013,-0.009 0.018,0 0.005,-0.004 0.01,-0.003 0.013,0 0.002,0.002 0.003,0.005 0.002,0.009 0.001,0 0.001,0 0.001,0l0 -0.098 -0.05 0 0 0.098c0,0 0.001,0 0.001,0 0,-0.004 0,-0.007 0.002,-0.009z"/>
   <path class="fil0" d="M0.228 0.213c0,0 -0.001,0 -0.001,0 -0.003,0.003 -0.006,0.003 -0.009,0.003l-0.01 0.04 0.01 -0.007 0.005 0.011 0.01 -0.04c-0.002,-0.001 -0.004,-0.003 -0.005,-0.007z"/>
   <path class="fil0" d="M0.245 0.213c0,0 0,0 -0.001,0 -0.001,0.004 -0.004,0.007 -0.006,0.007l0.012 0.045 0.004 -0.016 0.011 0.012 -0.012 -0.045c-0.003,0 -0.005,-0.001 -0.008,-0.003z"/>
   <path class="fil0" d="M0.242 0.21c0.001,0 0.002,-0.001 0.004,-0.001 0.007,0.006 0.011,0.004 0.009,-0.006 0.001,-0.001 0.002,-0.002 0.003,-0.003 0.01,0.002 0.012,-0.002 0.006,-0.009 0,-0.002 0.001,-0.003 0.001,-0.004 0.009,-0.004 0.009,-0.008 0,-0.011 0,-0.002 -0.001,-0.003 -0.001,-0.004 0.006,-0.008 0.004,-0.012 -0.006,-0.01 -0.001,-0.001 -0.002,-0.002 -0.003,-0.003 0.002,-0.009 -0.002,-0.012 -0.009,-0.006 -0.002,0 -0.003,0 -0.004,-0.001 -0.004,-0.009 -0.008,-0.009 -0.011,0 -0.002,0.001 -0.003,0.001 -0.005,0.001 -0.007,-0.006 -0.011,-0.003 -0.009,0.006 -0.001,0.001 -0.002,0.002 -0.003,0.003 -0.009,-0.002 -0.012,0.002 -0.006,0.01 0,0.001 -0.001,0.002 -0.001,0.004 -0.009,0.003 -0.009,0.007 0,0.011 0,0.001 0.001,0.002 0.001,0.004 -0.006,0.007 -0.003,0.011 0.006,0.009 0.001,0.001 0.002,0.002 0.003,0.003 -0.002,0.01 0.002,0.012 0.009,0.006 0.002,0 0.003,0.001 0.005,0.001 0.003,0.009 0.007,0.009 0.011,0z"/>
  </g>
  <rect class="fil1" width="0.324" height="0.324"/>
 </g>
</svg>
