<?xml version="1.0" encoding="UTF-8"?>
<!DOCTYPE svg PUBLIC "-//W3C//DTD SVG 1.1//EN" "http://www.w3.org/Graphics/SVG/1.1/DTD/svg11.dtd">
<!-- Creator: CorelDRAW -->
<svg xmlns="http://www.w3.org/2000/svg" xml:space="preserve" width="78px" height="78px" version="1.1" style="shape-rendering:geometricPrecision; text-rendering:geometricPrecision; image-rendering:optimizeQuality; fill-rule:evenodd; clip-rule:evenodd"
viewBox="0 0 0.152 0.152"
 xmlns:xlink="http://www.w3.org/1999/xlink"
 xmlns:xodm="http://www.corel.com/coreldraw/odm/2003">
 <defs>
  <style type="text/css">
   <![CDATA[
    .fil0 {fill:white}
   ]]>
  </style>
 </defs>
 <g id="Camada_x0020_1">
  <metadata id="CorelCorpID_0Corel-Layer"/>
  <path class="fil0" d="M0.036 0.058l0.018 0 0 0.062 -0.018 0 0 -0.062zm0.044 0.026l0 0.036 -0.017 0 0 -0.062 0.017 0 0 0.003c0.003,0 0.007,-0.003 0.013,-0.003 0.004,0 0.01,0.002 0.013,0.004 0.007,0.005 0.01,0.012 0.01,0.022l0 0.036 -0.018 0 0 -0.036c0,-0.004 -0.004,-0.008 -0.008,-0.008l-0.002 0c-0.003,0 -0.008,0.004 -0.008,0.008zm-0.044 -0.053l0.018 0 0 0.018 -0.018 0 0 -0.018zm-0.036 -0.01l0 0.11c0,0.011 0.01,0.021 0.021,0.021l0.11 0c0.011,0 0.021,-0.01 0.021,-0.021l0 -0.11c0,-0.011 -0.01,-0.021 -0.021,-0.021l-0.11 0c-0.011,0 -0.021,0.01 -0.021,0.021z"/>
 </g>
</svg>
