<?xml version="1.0" encoding="UTF-8"?>
<!DOCTYPE svg PUBLIC "-//W3C//DTD SVG 1.1//EN" "http://www.w3.org/Graphics/SVG/1.1/DTD/svg11.dtd">
<!-- Creator: CorelDRAW -->
<svg xmlns="http://www.w3.org/2000/svg" xml:space="preserve" width="74px" height="74px" version="1.1" style="shape-rendering:geometricPrecision; text-rendering:geometricPrecision; image-rendering:optimizeQuality; fill-rule:evenodd; clip-rule:evenodd"
viewBox="0 0 0.138 0.137"
 xmlns:xlink="http://www.w3.org/1999/xlink"
 xmlns:xodm="http://www.corel.com/coreldraw/odm/2003">
 <defs>
  <style type="text/css">
   <![CDATA[
    .fil0 {fill:white}
   ]]>
  </style>
 </defs>
 <g id="Camada_x0020_1">
  <metadata id="CorelCorpID_0Corel-Layer"/>
  <path class="fil0" d="M0.052 0.061c0.003,0.004 0.007,0.009 0.01,0.011l0.005 0.004c0.002,0.002 0.009,0.006 0.012,0.007 0.001,-0.002 0.005,-0.007 0.006,-0.008 0.001,0 0.018,0.009 0.02,0.01 0.001,0.001 0.006,0.003 0.007,0.003 -0.001,0.001 -0.002,0.002 -0.002,0.003 -0.004,0.005 -0.007,0.011 -0.011,0.014 -0.014,0.009 -0.04,-0.004 -0.05,-0.014 -0.005,-0.004 -0.006,-0.005 -0.01,-0.01 -0.005,-0.005 -0.009,-0.011 -0.012,-0.018 -0.002,-0.006 -0.002,-0.013 0,-0.019 0.002,-0.002 0.003,-0.003 0.005,-0.005l0.009 -0.009 0.018 0.023c-0.002,0.003 -0.006,0.006 -0.007,0.008zm-0.039 0.047l-0.013 0.029 0.028 -0.009c0.005,-0.002 0.004,-0.002 0.008,0.001 0.02,0.011 0.047,0.011 0.066,-0.001 0.005,-0.002 0.009,-0.005 0.013,-0.009 0.002,-0.002 0.004,-0.003 0.006,-0.006 0.006,-0.007 0.009,-0.012 0.013,-0.021 0.008,-0.025 0.003,-0.049 -0.014,-0.069 -0.002,-0.003 -0.007,-0.007 -0.01,-0.009 -0.018,-0.014 -0.043,-0.018 -0.064,-0.01 -0.009,0.003 -0.019,0.009 -0.025,0.015 -0.007,0.007 -0.011,0.013 -0.015,0.021 -0.001,0.002 -0.001,0.003 -0.001,0.004 -0.007,0.016 -0.006,0.034 0,0.051 0.001,0.002 0.003,0.005 0.004,0.007 0.001,0.002 0.002,0.004 0.004,0.006z"/>
 </g>
</svg>
