<?xml version="1.0" encoding="UTF-8"?>
<!DOCTYPE svg PUBLIC "-//W3C//DTD SVG 1.1//EN" "http://www.w3.org/Graphics/SVG/1.1/DTD/svg11.dtd">
<!-- Creator: CorelDRAW -->
<svg xmlns="http://www.w3.org/2000/svg" xml:space="preserve" width="91px" height="91px" version="1.1" style="shape-rendering:geometricPrecision; text-rendering:geometricPrecision; image-rendering:optimizeQuality; fill-rule:evenodd; clip-rule:evenodd"
viewBox="0 0 0.319 0.319"
 xmlns:xlink="http://www.w3.org/1999/xlink"
 xmlns:xodm="http://www.corel.com/coreldraw/odm/2003">
 <defs>
  <style type="text/css">
   <![CDATA[
    .fil1 {fill:none}
    .fil0 {fill:#FF6600}
   ]]>
  </style>
 </defs>
 <g id="Camada_x0020_1">
  <metadata id="CorelCorpID_0Corel-Layer"/>
  <g id="_2202575701120">
   <path class="fil0" d="M0.114 0.079l0.001 -0.002c0.003,-0.003 0.004,-0.004 0.007,-0.004 0.003,0 0.007,0 0.011,0 0.049,0 0.098,0 0.148,0l0 0.156c-0.052,0 -0.105,0 -0.157,0 -0.006,0 -0.005,0 -0.009,-0.004 -0.006,-0.006 -0.008,-0.007 -0.008,-0.011l0 -0.02 -0.017 0c0,0.023 0.003,0.02 -0.005,0.028 -0.005,0.004 -0.006,0.007 -0.009,0.007l-0.038 0 0 -0.156 0.032 0c0.006,0 0.007,-0.001 0.009,0.002 0.002,0.001 0.01,0.009 0.011,0.011 0,0.004 0,0.017 0,0.022l0.017 0c0,-0.006 0,-0.012 0,-0.018 0,-0.005 0,-0.004 0.002,-0.007 0.002,-0.001 0.003,-0.003 0.005,-0.004zm-0.094 0.145c-0.001,0.026 0.018,0.022 0.035,0.022 0.005,0 0.024,0.001 0.028,0 0.005,-0.001 0.011,-0.01 0.015,-0.013 0.004,0.002 0.01,0.01 0.014,0.012 0.004,0.002 0.02,0.001 0.026,0.001l0.131 0c0.007,0 0.014,0.001 0.02,-0.002 0.002,-0.001 0.001,-0.001 0.003,-0.001 0.001,-0.002 0.003,-0.004 0.005,-0.008 0.002,-0.006 0.001,-0.029 0.001,-0.037l0 -0.102c0,-0.015 0.004,-0.034 -0.011,-0.039 -0.006,-0.003 -0.04,-0.001 -0.05,-0.001 -0.034,0 -0.068,0 -0.102,0 -0.005,0 -0.02,-0.001 -0.024,0.001 -0.004,0.002 -0.008,0.009 -0.013,0.012 -0.008,-0.005 -0.009,-0.013 -0.018,-0.013 -0.011,0 -0.022,0 -0.033,0 -0.012,0 -0.019,-0.001 -0.024,0.008 -0.004,0.006 -0.002,0.021 -0.003,0.03 0,0.022 0.001,0.043 0,0.065 0,0.021 0.001,0.043 0,0.065z"/>
   <path class="fil0" d="M0.18 0.181c0.002,-0.003 0.037,-0.045 0.04,-0.047 0,-0.001 -0.001,0 0,-0.001l0.021 -0.025c0.004,-0.004 0.004,-0.004 0.005,-0.011 -0.001,-0.001 -0.001,-0.002 -0.002,-0.004 0,0 -0.006,-0.006 -0.013,-0.001 -0.002,0.003 -0.072,0.088 -0.084,0.101 -0.002,0.003 -0.007,0.007 -0.005,0.013 0.002,0.004 0.007,0.007 0.012,0.005 0.004,-0.002 0.022,-0.025 0.026,-0.03z"/>
   <path class="fil0" d="M0.166 0.108c0.01,-0.003 0.015,0.013 0.004,0.017 -0.005,0.001 -0.009,-0.003 -0.01,-0.006 -0.001,-0.003 -0.001,-0.005 0.001,-0.007 0.001,-0.003 0.002,-0.003 0.005,-0.004zm-0.02 -0.006l0 0c-0.001,0.002 -0.002,0.003 -0.002,0.005 -0.001,0.002 -0.001,0.003 -0.002,0.006 0,0.005 0,0.007 0.001,0.012 0.003,0.007 0.012,0.016 0.021,0.017l0.001 0c0.014,0.002 0.025,-0.009 0.028,-0.02 0.002,-0.007 0,-0.014 -0.003,-0.019 -0.002,-0.004 -0.008,-0.01 -0.013,-0.011 -0.011,-0.003 -0.022,-0.001 -0.028,0.007 -0.002,0.001 -0.001,0.001 -0.003,0.003z"/>
   <path class="fil0" d="M0.218 0.177c0.01,-0.003 0.015,0.014 0.004,0.017 -0.01,0.003 -0.017,-0.013 -0.004,-0.017zm-0.015 -0.011c-0.003,0.003 -0.005,0.006 -0.007,0.01 -0.002,0.005 -0.002,0.009 -0.002,0.014 0.002,0.009 0.01,0.018 0.017,0.02 0.005,0.001 0.007,0.002 0.012,0.001 0.003,0 0.004,0 0.006,-0.001 0.002,-0.001 0.003,-0.002 0.005,-0.002 0.004,-0.004 0.006,-0.005 0.008,-0.01 0.004,-0.006 0.003,-0.007 0.004,-0.014 -0.001,-0.001 -0.001,-0.003 -0.001,-0.005 0,-0.002 -0.001,-0.002 -0.001,-0.004 -0.001,-0.001 -0.002,-0.004 -0.003,-0.005 -0.002,-0.002 -0.003,-0.003 -0.004,-0.004 -0.003,-0.002 -0.006,-0.004 -0.01,-0.005 -0.012,-0.004 -0.018,0.001 -0.024,0.005z"/>
   <polygon class="fil0" points="0.09,0.177 0.107,0.177 0.107,0.16 0.09,0.16 "/>
   <polygon class="fil0" points="0.09,0.142 0.107,0.142 0.107,0.125 0.09,0.125 "/>
  </g>
  <rect class="fil1" width="0.319" height="0.319"/>
 </g>
</svg>
