<?xml version="1.0" encoding="UTF-8"?>
<!DOCTYPE svg PUBLIC "-//W3C//DTD SVG 1.1//EN" "http://www.w3.org/Graphics/SVG/1.1/DTD/svg11.dtd">
<!-- Creator: CorelDRAW -->
<svg xmlns="http://www.w3.org/2000/svg" xml:space="preserve" width="78px" height="78px" version="1.1" style="shape-rendering:geometricPrecision; text-rendering:geometricPrecision; image-rendering:optimizeQuality; fill-rule:evenodd; clip-rule:evenodd"
viewBox="0 0 0.151 0.151"
 xmlns:xlink="http://www.w3.org/1999/xlink"
 xmlns:xodm="http://www.corel.com/coreldraw/odm/2003">
 <defs>
  <style type="text/css">
   <![CDATA[
    .fil0 {fill:white}
   ]]>
  </style>
 </defs>
 <g id="Camada_x0020_1">
  <metadata id="CorelCorpID_0Corel-Layer"/>
  <path class="fil0" d="M0 0.021l0 0.109c0,0.011 0.01,0.021 0.021,0.021l0.046 0 0 -0.053 -0.018 0 0 -0.027 0.018 0c0,-0.008 -0.001,-0.022 0.002,-0.028 0.001,-0.004 0.003,-0.006 0.006,-0.009 0.005,-0.005 0.012,-0.007 0.02,-0.007l0.025 0 0 0.026 -0.027 0 0 0.018 0.027 0c0,0.001 -0.004,0.025 -0.004,0.027l-0.023 0 0 0.053 0.037 0c0.011,0 0.021,-0.01 0.021,-0.021l0 -0.109c0,-0.011 -0.01,-0.021 -0.021,-0.021l-0.109 0c-0.011,0 -0.021,0.01 -0.021,0.021z"/>
 </g>
</svg>
