<svg xmlns="http://www.w3.org/2000/svg" xml:space="preserve" version="1.1" style="shape-rendering:geometricPrecision; text-rendering:geometricPrecision; image-rendering:optimizeQuality; fill-rule:evenodd; clip-rule:evenodd" viewBox="0 0 64.738 12.641" xmlns:xlink="http://www.w3.org/1999/xlink" xmlns:xodm="http://www.corel.com/coreldraw/odm/2003"> <defs> <mask id="id0"> <linearGradient id="id1" gradientUnits="userSpaceOnUse" x1="16.462" y1="2.964" x2="7.982" y2="4.091"> <stop offset="0" style="stop-opacity:1; stop-color:white"/> <stop offset="1" style="stop-opacity:0; stop-color:white"/> </linearGradient> <rect style="fill:url(#id1)" x="4.754" y="2.728" width="9.332" height="3.25"/> </mask> </defs> <g id="Camada_x0020_1"> <metadata id="CorelCorpID_0Corel-Layer"/> <g id="_2185462239792"> <path fill="#FFFFFF" d="M14.459 8.341l0 -4.356 0.564 0 0 1.187 -0.058 -0.208c0.122,-0.332 0.326,-0.585 0.614,-0.759 0.287,-0.174 0.644,-0.261 1.07,-0.261l0 0.572c-0.022,0 -0.044,-0.001 -0.066,-0.004 -0.022,-0.003 -0.045,-0.004 -0.067,-0.004 -0.459,0 -0.818,0.14 -1.078,0.419 -0.26,0.279 -0.39,0.676 -0.39,1.19l0 2.224 -0.589 0zm4.673 0.041c-0.454,0 -0.852,-0.095 -1.195,-0.286 -0.343,-0.191 -0.611,-0.453 -0.805,-0.788 -0.194,-0.335 -0.29,-0.718 -0.29,-1.149 0,-0.432 0.092,-0.813 0.278,-1.145 0.185,-0.332 0.439,-0.593 0.763,-0.784 0.323,-0.191 0.687,-0.286 1.091,-0.286 0.409,0 0.773,0.092 1.091,0.278 0.318,0.185 0.568,0.445 0.751,0.78 0.182,0.334 0.273,0.72 0.273,1.157 0,0.028 -0.001,0.057 -0.004,0.087 -0.002,0.03 -0.004,0.062 -0.004,0.095l-3.791 0 0 -0.439 3.476 0 -0.232 0.174c0,-0.315 -0.068,-0.596 -0.204,-0.842 -0.135,-0.246 -0.319,-0.438 -0.551,-0.577 -0.233,-0.138 -0.501,-0.207 -0.805,-0.207 -0.299,0 -0.567,0.069 -0.805,0.207 -0.238,0.139 -0.423,0.332 -0.556,0.581 -0.132,0.249 -0.199,0.534 -0.199,0.855l0 0.091c0,0.332 0.073,0.623 0.22,0.875 0.147,0.252 0.351,0.448 0.614,0.589 0.263,0.141 0.563,0.212 0.9,0.212 0.266,0 0.513,-0.047 0.743,-0.141 0.229,-0.094 0.427,-0.238 0.593,-0.432l0.332 0.382c-0.194,0.232 -0.436,0.409 -0.726,0.531 -0.291,0.122 -0.61,0.182 -0.958,0.182zm4.573 0c-0.432,0 -0.817,-0.095 -1.158,-0.286 -0.34,-0.191 -0.607,-0.453 -0.8,-0.788 -0.194,-0.335 -0.291,-0.718 -0.291,-1.149 0,-0.437 0.097,-0.821 0.291,-1.153 0.193,-0.332 0.46,-0.592 0.8,-0.78 0.341,-0.188 0.726,-0.282 1.158,-0.282 0.37,0 0.705,0.072 1.004,0.215 0.298,0.144 0.533,0.36 0.705,0.648l-0.44 0.298c-0.149,-0.221 -0.335,-0.384 -0.556,-0.489 -0.221,-0.105 -0.462,-0.158 -0.722,-0.158 -0.309,0 -0.589,0.071 -0.837,0.212 -0.249,0.141 -0.446,0.338 -0.59,0.593 -0.143,0.254 -0.215,0.553 -0.215,0.896 0,0.343 0.072,0.642 0.215,0.896 0.144,0.254 0.341,0.452 0.59,0.593 0.248,0.141 0.528,0.212 0.837,0.212 0.26,0 0.501,-0.053 0.722,-0.158 0.221,-0.105 0.407,-0.265 0.556,-0.481l0.44 0.299c-0.172,0.282 -0.407,0.496 -0.705,0.643 -0.299,0.146 -0.634,0.219 -1.004,0.219zm4.241 0c-0.453,0 -0.852,-0.095 -1.195,-0.286 -0.343,-0.191 -0.611,-0.453 -0.804,-0.788 -0.194,-0.335 -0.291,-0.718 -0.291,-1.149 0,-0.432 0.093,-0.813 0.278,-1.145 0.186,-0.332 0.44,-0.593 0.763,-0.784 0.324,-0.191 0.688,-0.286 1.091,-0.286 0.41,0 0.773,0.092 1.091,0.278 0.319,0.185 0.569,0.445 0.751,0.78 0.183,0.334 0.274,0.72 0.274,1.157 0,0.028 -0.001,0.057 -0.004,0.087 -0.003,0.03 -0.004,0.062 -0.004,0.095l-3.792 0 0 -0.439 3.477 0 -0.233 0.174c0,-0.315 -0.068,-0.596 -0.203,-0.842 -0.136,-0.246 -0.319,-0.438 -0.552,-0.577 -0.232,-0.138 -0.5,-0.207 -0.805,-0.207 -0.298,0 -0.566,0.069 -0.804,0.207 -0.238,0.139 -0.423,0.332 -0.556,0.581 -0.133,0.249 -0.199,0.534 -0.199,0.855l0 0.091c0,0.332 0.073,0.623 0.22,0.875 0.146,0.252 0.351,0.448 0.614,0.589 0.262,0.141 0.562,0.212 0.9,0.212 0.265,0 0.513,-0.047 0.742,-0.141 0.23,-0.094 0.427,-0.238 0.593,-0.432l0.332 0.382c-0.193,0.232 -0.435,0.409 -0.726,0.531 -0.29,0.122 -0.609,0.182 -0.958,0.182zm5.013 0c-0.382,0 -0.725,-0.087 -1.029,-0.261 -0.304,-0.174 -0.545,-0.427 -0.722,-0.759 -0.177,-0.332 -0.265,-0.733 -0.265,-1.203 0,-0.476 0.09,-0.878 0.27,-1.207 0.179,-0.329 0.421,-0.58 0.726,-0.751 0.304,-0.171 0.644,-0.257 1.02,-0.257 0.415,0 0.787,0.092 1.116,0.278 0.329,0.185 0.588,0.444 0.776,0.775 0.188,0.332 0.282,0.719 0.282,1.162 0,0.437 -0.094,0.823 -0.282,1.157 -0.188,0.335 -0.447,0.596 -0.776,0.784 -0.329,0.188 -0.701,0.282 -1.116,0.282zm-2.248 -0.041l0 -6.156 0.589 0 0 3.086 -0.083 0.88 0.058 0.879 0 1.311 -0.564 0zm2.207 -0.481c0.309,0 0.586,-0.071 0.829,-0.212 0.244,-0.141 0.437,-0.34 0.581,-0.597 0.144,-0.257 0.216,-0.555 0.216,-0.892 0,-0.343 -0.072,-0.642 -0.216,-0.896 -0.144,-0.255 -0.337,-0.452 -0.581,-0.593 -0.243,-0.141 -0.52,-0.212 -0.829,-0.212 -0.31,0 -0.588,0.071 -0.834,0.212 -0.246,0.141 -0.44,0.338 -0.581,0.593 -0.141,0.254 -0.212,0.553 -0.212,0.896 0,0.337 0.071,0.635 0.212,0.892 0.141,0.257 0.335,0.456 0.581,0.597 0.246,0.141 0.524,0.212 0.834,0.212zm4.871 0.522c-0.453,0 -0.851,-0.095 -1.194,-0.286 -0.343,-0.191 -0.611,-0.453 -0.805,-0.788 -0.194,-0.335 -0.29,-0.718 -0.29,-1.149 0,-0.432 0.092,-0.813 0.278,-1.145 0.185,-0.332 0.439,-0.593 0.763,-0.784 0.323,-0.191 0.687,-0.286 1.091,-0.286 0.409,0 0.773,0.092 1.091,0.278 0.318,0.185 0.568,0.445 0.751,0.78 0.182,0.334 0.273,0.72 0.273,1.157 0,0.028 -0.001,0.057 -0.004,0.087 -0.003,0.03 -0.004,0.062 -0.004,0.095l-3.791 0 0 -0.439 3.476 0 -0.232 0.174c0,-0.315 -0.068,-0.596 -0.204,-0.842 -0.135,-0.246 -0.319,-0.438 -0.551,-0.577 -0.233,-0.138 -0.501,-0.207 -0.805,-0.207 -0.299,0 -0.567,0.069 -0.805,0.207 -0.238,0.139 -0.423,0.332 -0.556,0.581 -0.133,0.249 -0.199,0.534 -0.199,0.855l0 0.091c0,0.332 0.073,0.623 0.22,0.875 0.146,0.252 0.351,0.448 0.614,0.589 0.263,0.141 0.563,0.212 0.9,0.212 0.266,0 0.513,-0.047 0.743,-0.141 0.229,-0.094 0.427,-0.238 0.593,-0.432l0.332 0.382c-0.194,0.232 -0.436,0.409 -0.726,0.531 -0.291,0.122 -0.61,0.182 -0.959,0.182z"/> <path fill="#FFFFFF" d="M41.898 8.407c-0.382,0 -0.748,-0.045 -1.099,-0.137 -0.352,-0.091 -0.629,-0.206 -0.834,-0.344l0.431 -0.929c0.205,0.127 0.447,0.231 0.726,0.311 0.28,0.08 0.555,0.12 0.826,0.12 0.298,0 0.51,-0.036 0.634,-0.108 0.125,-0.071 0.187,-0.171 0.187,-0.298 0,-0.105 -0.048,-0.184 -0.145,-0.237 -0.097,-0.052 -0.225,-0.092 -0.386,-0.12 -0.16,-0.028 -0.336,-0.055 -0.527,-0.083 -0.191,-0.028 -0.383,-0.065 -0.576,-0.112 -0.194,-0.047 -0.371,-0.117 -0.531,-0.212 -0.161,-0.094 -0.289,-0.221 -0.386,-0.381 -0.097,-0.161 -0.145,-0.368 -0.145,-0.622 0,-0.282 0.081,-0.531 0.244,-0.747 0.164,-0.216 0.4,-0.386 0.71,-0.51 0.31,-0.125 0.68,-0.187 1.112,-0.187 0.304,0 0.614,0.033 0.929,0.1 0.315,0.066 0.578,0.163 0.788,0.29l-0.431 0.921c-0.216,-0.127 -0.433,-0.214 -0.652,-0.261 -0.218,-0.047 -0.43,-0.071 -0.634,-0.071 -0.288,0 -0.498,0.039 -0.631,0.116 -0.133,0.078 -0.199,0.177 -0.199,0.299 0,0.11 0.048,0.193 0.145,0.249 0.097,0.055 0.225,0.099 0.386,0.132 0.16,0.034 0.336,0.063 0.527,0.088 0.191,0.024 0.383,0.062 0.576,0.112 0.194,0.049 0.37,0.12 0.527,0.211 0.158,0.091 0.286,0.216 0.386,0.374 0.1,0.157 0.149,0.363 0.149,0.618 0,0.276 -0.083,0.521 -0.249,0.734 -0.166,0.213 -0.405,0.38 -0.717,0.502 -0.313,0.121 -0.693,0.182 -1.141,0.182zm5.114 0c-0.376,0 -0.705,-0.083 -0.987,-0.249 -0.282,-0.166 -0.502,-0.419 -0.66,-0.759 -0.158,-0.34 -0.236,-0.77 -0.236,-1.29 0,-0.525 0.074,-0.957 0.224,-1.294 0.149,-0.338 0.365,-0.589 0.647,-0.755 0.282,-0.166 0.619,-0.249 1.012,-0.249 0.42,0 0.798,0.095 1.132,0.286 0.335,0.191 0.6,0.458 0.797,0.801 0.196,0.343 0.294,0.747 0.294,1.211 0,0.47 -0.098,0.877 -0.294,1.22 -0.197,0.343 -0.462,0.608 -0.797,0.796 -0.334,0.188 -0.712,0.282 -1.132,0.282zm-2.638 1.543l0 -6.073 1.236 0 0 0.913 -0.025 1.327 0.083 1.32 0 2.513 -1.294 0zm2.414 -2.605c0.216,0 0.408,-0.049 0.576,-0.149 0.169,-0.1 0.305,-0.242 0.407,-0.427 0.102,-0.186 0.153,-0.405 0.153,-0.66 0,-0.26 -0.051,-0.481 -0.153,-0.664 -0.102,-0.182 -0.238,-0.323 -0.407,-0.423 -0.168,-0.099 -0.36,-0.149 -0.576,-0.149 -0.216,0 -0.409,0.05 -0.581,0.149 -0.171,0.1 -0.307,0.241 -0.406,0.423 -0.1,0.183 -0.15,0.404 -0.15,0.664 0,0.255 0.05,0.474 0.15,0.66 0.099,0.185 0.235,0.327 0.406,0.427 0.172,0.1 0.365,0.149 0.581,0.149zm5.006 1.062c-0.476,0 -0.898,-0.099 -1.265,-0.298 -0.368,-0.199 -0.659,-0.472 -0.871,-0.818 -0.213,-0.345 -0.32,-0.739 -0.32,-1.182 0,-0.448 0.107,-0.845 0.32,-1.19 0.212,-0.346 0.503,-0.617 0.871,-0.813 0.367,-0.197 0.789,-0.295 1.265,-0.295 0.47,0 0.89,0.098 1.261,0.295 0.371,0.196 0.661,0.466 0.871,0.808 0.21,0.343 0.315,0.742 0.315,1.195 0,0.443 -0.105,0.837 -0.315,1.182 -0.21,0.346 -0.5,0.619 -0.871,0.818 -0.371,0.199 -0.791,0.298 -1.261,0.298zm0 -1.062c0.216,0 0.409,-0.049 0.581,-0.149 0.171,-0.1 0.307,-0.242 0.406,-0.427 0.1,-0.186 0.15,-0.405 0.15,-0.66 0,-0.26 -0.05,-0.481 -0.15,-0.664 -0.099,-0.182 -0.235,-0.323 -0.406,-0.423 -0.172,-0.099 -0.365,-0.149 -0.581,-0.149 -0.216,0 -0.409,0.05 -0.581,0.149 -0.171,0.1 -0.308,0.241 -0.411,0.423 -0.102,0.183 -0.153,0.404 -0.153,0.664 0,0.255 0.051,0.474 0.153,0.66 0.103,0.185 0.24,0.327 0.411,0.427 0.172,0.1 0.365,0.149 0.581,0.149zm2.882 0.996l0 -4.464 1.236 0 0 1.261 -0.174 -0.365c0.133,-0.315 0.346,-0.554 0.639,-0.717 0.293,-0.163 0.65,-0.245 1.07,-0.245l0 1.195c-0.055,-0.006 -0.105,-0.01 -0.149,-0.013 -0.045,-0.003 -0.092,-0.004 -0.141,-0.004 -0.354,0 -0.64,0.101 -0.859,0.303 -0.218,0.202 -0.328,0.516 -0.328,0.942l0 2.107 -1.294 0zm5.097 0.066c-0.525,0 -0.934,-0.134 -1.228,-0.402 -0.293,-0.268 -0.439,-0.668 -0.439,-1.199l0 -3.916 1.294 0 0 3.899c0,0.189 0.05,0.334 0.149,0.436 0.1,0.102 0.235,0.154 0.407,0.154 0.205,0 0.379,-0.056 0.523,-0.166l0.348 0.912c-0.133,0.094 -0.292,0.165 -0.477,0.212 -0.185,0.047 -0.378,0.07 -0.577,0.07zm-2.356 -3.534l0 -0.996 3.095 0 0 0.996 -3.095 0zm5.214 3.534c-0.382,0 -0.748,-0.045 -1.1,-0.137 -0.351,-0.091 -0.629,-0.206 -0.833,-0.344l0.431 -0.929c0.205,0.127 0.447,0.231 0.726,0.311 0.279,0.08 0.554,0.12 0.825,0.12 0.299,0 0.511,-0.036 0.635,-0.108 0.125,-0.071 0.187,-0.171 0.187,-0.298 0,-0.105 -0.049,-0.184 -0.145,-0.237 -0.097,-0.052 -0.226,-0.092 -0.386,-0.12 -0.161,-0.028 -0.336,-0.055 -0.527,-0.083 -0.191,-0.028 -0.383,-0.065 -0.577,-0.112 -0.193,-0.047 -0.37,-0.117 -0.531,-0.212 -0.16,-0.094 -0.289,-0.221 -0.385,-0.381 -0.097,-0.161 -0.146,-0.368 -0.146,-0.622 0,-0.282 0.082,-0.531 0.245,-0.747 0.163,-0.216 0.4,-0.386 0.709,-0.51 0.31,-0.125 0.681,-0.187 1.112,-0.187 0.304,0 0.614,0.033 0.929,0.1 0.316,0.066 0.578,0.163 0.789,0.29l-0.432 0.921c-0.216,-0.127 -0.433,-0.214 -0.651,-0.261 -0.219,-0.047 -0.43,-0.071 -0.635,-0.071 -0.287,0 -0.498,0.039 -0.63,0.116 -0.133,0.078 -0.199,0.177 -0.199,0.299 0,0.11 0.048,0.193 0.145,0.249 0.096,0.055 0.225,0.099 0.386,0.132 0.16,0.034 0.336,0.063 0.526,0.088 0.191,0.024 0.383,0.062 0.577,0.112 0.194,0.049 0.369,0.12 0.527,0.211 0.157,0.091 0.286,0.216 0.386,0.374 0.099,0.157 0.149,0.363 0.149,0.618 0,0.276 -0.083,0.521 -0.249,0.734 -0.166,0.213 -0.405,0.38 -0.718,0.502 -0.312,0.121 -0.692,0.182 -1.14,0.182z"/> <path fill="#FF6600" d="M25.745 12.338c-3.905,-0.485 -17.212,-3.489 -18.037,-6.233 -0.811,-2.622 7.943,-0.738 6.339,-3.885 -0.812,-2.072 -9.893,-2.34 -14.047,-2.182l3.171 2.314c2.47,-0.096 5.111,0.006 7.05,0.392 -1.747,0.466 -4.626,0.663 -5.46,1.978 -2.911,4.619 18.72,9.146 20.984,7.616z"/> <path fill="#FF6600" style="mask:url(#id0)" d="M7.676 5.978c-0.465,-2.063 5.31,-1.078 6.41,-2.571 -0.761,-0.181 -4.475,-0.786 -3.865,-0.663 -1.747,0.465 -4.626,0.663 -5.46,1.978 -0.087,0.138 0.669,0.589 0.616,0.723l2.299 0.533z"/> </g> </g> </svg>
